<svg width="10" height="10" viewBox="0 0 10 10" fill="none" xmlns="http://www.w3.org/2000/svg">
<g clip-path="url(#clip0_15_19)">
<path opacity="0.938" fill-rule="evenodd" clip-rule="evenodd" d="M5.19531 2.79297C5.14223 2.65599 5.05758 2.55182 4.94141 2.48047C4.75988 2.75156 4.6557 3.05104 4.62891 3.37891C4.63105 3.68261 4.74824 3.93 4.98047 4.12109C5.04488 4.07625 5.10348 4.02418 5.15625 3.96484C5.37633 3.58334 5.38934 3.19272 5.19531 2.79297ZM4.57031 4.70703C4.31184 4.30074 3.94074 4.06637 3.45703 4.00391C3.48418 4.17754 3.52975 4.3468 3.59375 4.51172C3.79192 4.98977 4.15 5.22414 4.66797 5.21484C4.66656 5.03988 4.63402 4.87063 4.57031 4.70703ZM5.76172 5.15625C6.22316 4.90293 6.45754 4.51883 6.46484 4.00391C6.23773 4.06027 6.01641 4.14492 5.80078 4.25781C5.4523 4.47937 5.28305 4.7984 5.29297 5.21484C5.45242 5.22094 5.60867 5.20141 5.76172 5.15625ZM4.45312 6.07422C4.1666 5.81703 3.83457 5.64773 3.45703 5.56641C3.5207 6.32008 3.92434 6.73676 4.66797 6.81641C4.67508 6.54516 4.60344 6.29773 4.45312 6.07422ZM5.29297 6.81641C6.05281 6.73398 6.44344 6.3173 6.46484 5.56641C6.22375 5.63625 5.98938 5.73391 5.76172 5.85938C5.42387 6.08586 5.26762 6.40488 5.29297 6.81641ZM5.17578 1.67969C5.08828 1.64152 4.99715 1.62199 4.90234 1.62109C4.32363 2.10137 4.01113 2.72637 3.96484 3.49609C3.69737 3.41508 3.42393 3.363 3.14453 3.33984C3.02679 3.33041 2.92913 3.36947 2.85156 3.45703C2.76601 3.94656 2.83763 4.41531 3.06641 4.86328C2.99921 4.91875 2.9276 4.97082 2.85156 5.01953C2.77387 5.3884 2.79991 5.75301 2.92969 6.11328C3.18522 6.95391 3.75163 7.39664 4.62891 7.44141C4.66137 7.68777 4.6809 7.9352 4.6875 8.18359C4.88281 8.44402 5.07812 8.44402 5.27344 8.18359C5.28004 7.9352 5.29957 7.68777 5.33203 7.44141C5.85367 7.43055 6.28984 7.23523 6.64062 6.85547C6.97508 6.40562 7.15086 5.89781 7.16797 5.33203C7.19605 5.10121 7.10488 4.94496 6.89453 4.86328C7.05906 4.51766 7.1502 4.15305 7.16797 3.76953C7.20141 3.58256 7.13629 3.44584 6.97266 3.35938C6.63984 3.34832 6.31434 3.39389 5.99609 3.49609C5.94996 2.78553 5.67652 2.18006 5.17578 1.67969Z" fill="#E9AE3D"/>
<path opacity="0.926" fill-rule="evenodd" clip-rule="evenodd" d="M5.44922 -0.0195312H4.51172C1.99136 0.39143 0.480949 1.84976 -0.0195312 4.35547V5.52734C0.389225 8.11059 1.88662 9.59496 4.47266 9.98047H5.48828C8.09238 9.58992 9.58977 8.09254 9.98047 5.48828V4.35547C9.48 1.84976 7.96957 0.39143 5.44922 -0.0195312ZM7.83203 1.67969C6.99191 0.960551 6.01535 0.589457 4.90234 0.566406C3.5992 0.654809 2.51196 1.18866 1.64062 2.16797C0.215201 4.04367 0.208691 5.92516 1.62109 7.8125C1.64714 7.83855 1.67318 7.83855 1.69922 7.8125C1.94782 7.55082 2.20823 7.30344 2.48047 7.07031C2.85191 7.01191 2.98863 7.16168 2.89062 7.51953L2.14844 8.26172C2.14209 8.33543 2.17464 8.39402 2.24609 8.4375C3.67804 9.4791 5.21449 9.66141 6.85547 8.98438C8.18852 8.28891 9.00234 7.20164 9.29688 5.72266C9.52773 4.35855 9.18918 3.16064 8.28125 2.12891L7.48047 2.92969C7.05449 2.96702 6.93082 2.79124 7.10938 2.40234L7.83203 1.67969Z" fill="#E9AE3D"/>
</g>
<defs>
<clipPath id="clip0_15_19">
<rect width="10" height="10" fill="white"/>
</clipPath>
</defs>
</svg>
