<svg width="10" height="10" viewBox="0 0 10 10" fill="none" xmlns="http://www.w3.org/2000/svg">
<g clip-path="url(#clip0_15_16)">
<path opacity="0.934" fill-rule="evenodd" clip-rule="evenodd" d="M9.98047 3.88672C9.98047 4.25129 9.98047 4.6159 9.98047 4.98047C9.74516 6.91484 8.65141 7.95 6.69922 8.08594C5.83727 8.12895 4.97789 8.10289 4.12109 8.00781C1.90108 7.68879 0.566445 6.43227 0.117188 4.23828C0.0622328 3.96063 0.0166598 3.6872 -0.0195312 3.41797C-0.0195312 2.97526 -0.0195312 2.53255 -0.0195312 2.08984C0.0253853 1.98649 0.10351 1.91488 0.214844 1.875C1.56384 1.75679 2.83987 2.00418 4.04297 2.61719C5.07578 3.27404 5.73332 4.20504 6.01562 5.41016C6.32969 4.74449 6.83102 4.28227 7.51953 4.02344C8.22512 3.75496 8.95426 3.65079 9.70703 3.71094C9.82527 3.73223 9.91641 3.79082 9.98047 3.88672ZM0.605469 2.48047C1.62848 2.46501 2.60504 2.66683 3.53516 3.08594C4.32434 3.52386 4.8777 4.1684 5.19531 5.01953C5.42223 5.65195 5.53941 6.30297 5.54688 6.97266C4.79816 6.22395 4.04949 5.47527 3.30078 4.72656C3.01435 4.5902 2.83206 4.67484 2.75391 4.98047C2.78264 5.0602 2.8152 5.13832 2.85156 5.21484C3.58724 5.95051 4.32293 6.68621 5.05859 7.42188C3.95332 7.43102 2.95073 7.11852 2.05078 6.48438C1.28632 5.75625 0.837102 4.86434 0.703125 3.80859C0.641164 3.36793 0.608613 2.92522 0.605469 2.48047ZM6.77734 7.40234C7.19262 6.9675 7.61582 6.53781 8.04688 6.11328C8.1657 5.87254 8.10711 5.69676 7.87109 5.58594C7.75707 5.56438 7.65289 5.59043 7.55859 5.66406C7.13543 6.08723 6.71223 6.51043 6.28906 6.93359C6.36648 5.49656 7.1152 4.65672 8.53516 4.41406C8.80676 4.36863 9.0802 4.3491 9.35547 4.35547C9.36613 5.17598 9.13828 5.91816 8.67188 6.58203C8.14621 7.09383 7.51469 7.36727 6.77734 7.40234Z" fill="#6D9455"/>
</g>
<defs>
<clipPath id="clip0_15_16">
<rect width="10" height="10" fill="white"/>
</clipPath>
</defs>
</svg>
