<svg width="10" height="10" viewBox="0 0 10 10" fill="none" xmlns="http://www.w3.org/2000/svg">
<g clip-path="url(#clip0_15_13)">
<path opacity="0.934" fill-rule="evenodd" clip-rule="evenodd" d="M0.449219 -0.0195312C0.553387 -0.0195312 0.657551 -0.0195312 0.761719 -0.0195312C1.52718 0.465957 2.15869 1.09096 2.65625 1.85547C3.75653 3.61422 4.51172 5.51527 4.92188 7.55859C5.1175 6.64566 5.39746 5.76023 5.76172 4.90234C5.28883 4.20914 5.1391 3.45393 5.3125 2.63672C5.47332 2.15056 5.76629 1.76645 6.19141 1.48438C6.87785 1.19325 7.55492 0.880754 8.22266 0.546875C8.50645 0.385917 8.76687 0.197115 9.00391 -0.0195312C9.10809 -0.0195312 9.21223 -0.0195312 9.31641 -0.0195312C9.41289 0.0422527 9.47148 0.133399 9.49219 0.253906C9.65566 1.0272 9.70777 1.80845 9.64844 2.59766C9.5057 3.60005 8.99141 4.34875 8.10547 4.84375C7.55039 5.08707 6.97098 5.19773 6.36719 5.17578C5.77195 6.6284 5.42039 8.13879 5.3125 9.70703C5.2918 9.82754 5.2332 9.91867 5.13672 9.98047C5.03254 9.98047 4.9284 9.98047 4.82422 9.98047C4.7734 9.93594 4.72781 9.88387 4.6875 9.82422C4.39895 7.88859 3.89112 6.01359 3.16406 4.19922C2.65606 2.95455 1.92038 1.86731 0.957031 0.9375C0.754149 0.780191 0.545813 0.630449 0.332031 0.488281C0.254309 0.284801 0.293372 0.11553 0.449219 -0.0195312ZM8.84766 0.917969C8.88656 0.914617 8.9191 0.927641 8.94531 0.957031C9.00387 1.47654 9.01687 1.99737 8.98438 2.51953C8.79691 3.55344 8.19145 4.19797 7.16797 4.45312C7.01172 4.47918 6.85547 4.47918 6.69922 4.45312C7.01184 3.91918 7.36988 3.41789 7.77344 2.94922C7.84504 2.57812 7.69531 2.42839 7.32422 2.5C6.83738 2.97142 6.44027 3.51179 6.13281 4.12109C5.91488 3.68708 5.86281 3.23135 5.97656 2.75391C6.09402 2.46715 6.28281 2.23929 6.54297 2.07031C7.03449 1.84138 7.5293 1.62002 8.02734 1.40625C8.31617 1.26214 8.58961 1.09938 8.84766 0.917969Z" fill="#739C59"/>
</g>
<defs>
<clipPath id="clip0_15_13">
<rect width="10" height="10" fill="white"/>
</clipPath>
</defs>
</svg>
